<svg xmlns="http://www.w3.org/2000/svg" viewBox="0 0 64 64">
  <defs>
    <linearGradient id="grad" x1="0%" y1="0%" x2="100%" y2="100%">
      <stop offset="0%" style="stop-color:#3b82f6;stop-opacity:1" />
      <stop offset="100%" style="stop-color:#1d4ed8;stop-opacity:1" />
    </linearGradient>
  </defs>
  
  <!-- Building structure -->
  <rect x="18" y="24" width="16" height="28" fill="url(#grad)" rx="2"/>
  <rect x="20" y="28" width="4" height="4" fill="#fff" opacity="0.8"/>
  <rect x="28" y="28" width="4" height="4" fill="#fff" opacity="0.8"/>
  <rect x="20" y="36" width="4" height="4" fill="#fff" opacity="0.8"/>
  <rect x="28" y="36" width="4" height="4" fill="#fff" opacity="0.8"/>
  <rect x="20" y="44" width="4" height="4" fill="#fff" opacity="0.8"/>
  <rect x="28" y="44" width="4" height="4" fill="#fff" opacity="0.8"/>
  
  <!-- Location pin -->
  <path d="M 44 12 C 38.5 12 34 16.5 34 22 C 34 28.5 44 38 44 38 C 44 38 54 28.5 54 22 C 54 16.5 49.5 12 44 12 Z" fill="#ef4444"/>
  <circle cx="44" cy="22" r="4" fill="#fff"/>
  
  <!-- Base line -->
  <rect x="14" y="52" width="36" height="2" fill="#1e293b" opacity="0.3"/>
</svg>
