<svg width="32" height="32" viewBox="0 0 32 32" fill="none" xmlns="http://www.w3.org/2000/svg">
  <rect width="32" height="32" rx="6" fill="url(#gradient)"/>
  <path d="M16 8L18 10H22C22.5304 10 23.0391 10.2107 23.4142 10.5858C23.7893 10.9609 24 11.4696 24 12V20C24 20.5304 23.7893 21.0391 23.4142 21.4142C23.0391 21.7893 22.5304 22 22 22H10C9.46957 22 8.96086 21.7893 8.58579 21.4142C8.21071 21.0391 8 20.5304 8 20V12C8 11.4696 8.21071 10.9609 8.58579 10.5858C8.96086 10.2107 9.46957 10 10 10H14L16 8Z" fill="white" stroke="white" stroke-width="1.5" stroke-linecap="round" stroke-linejoin="round"/>
  <circle cx="16" cy="16" r="3" fill="url(#gradient)" stroke="white" stroke-width="1"/>
  <circle cx="20" cy="13" r="1" fill="#FFD700"/>
  <defs>
    <linearGradient id="gradient" x1="0" y1="0" x2="32" y2="32" gradientUnits="userSpaceOnUse">
      <stop stop-color="#0066cc"/>
      <stop offset="1" stop-color="#0052a3"/>
    </linearGradient>
  </defs>
</svg>
